<mxfile host="app.diagrams.net" modified="2022-01-30T04:08:52.600Z" agent="5.0 (Windows NT 10.0; Win64; x64) AppleWebKit/537.36 (KHTML, like Gecko) Chrome/97.0.4692.99 Safari/537.36" etag="Q_SrRKuFklTk6Zd6Tbma" version="16.5.2" type="github">
  <diagram id="UbNyLUca0hssICbXglK_" name="Page-1">
    <mxGraphModel dx="1813" dy="916" grid="1" gridSize="10" guides="1" tooltips="1" connect="1" arrows="1" fold="1" page="1" pageScale="1" pageWidth="827" pageHeight="1169" background="none" math="0" shadow="0">
      <root>
        <mxCell id="0" />
        <mxCell id="1" parent="0" />
        <mxCell id="Q195cHMQYqPVQ3Ld-JVz-11" value="" style="rounded=0;whiteSpace=wrap;html=1;dashed=1;" vertex="1" parent="1">
          <mxGeometry x="40" y="240" width="760" height="440" as="geometry" />
        </mxCell>
        <mxCell id="Q195cHMQYqPVQ3Ld-JVz-8" value="" style="rounded=0;whiteSpace=wrap;html=1;dashed=1;" vertex="1" parent="1">
          <mxGeometry x="40" y="40" width="760" height="130" as="geometry" />
        </mxCell>
        <mxCell id="Q195cHMQYqPVQ3Ld-JVz-1" value="订单下单" style="rounded=0;whiteSpace=wrap;html=1;" vertex="1" parent="1">
          <mxGeometry x="80" y="80" width="120" height="60" as="geometry" />
        </mxCell>
        <mxCell id="Q195cHMQYqPVQ3Ld-JVz-2" value="订单审核" style="rounded=0;whiteSpace=wrap;html=1;" vertex="1" parent="1">
          <mxGeometry x="80" y="389" width="120" height="60" as="geometry" />
        </mxCell>
        <mxCell id="Q195cHMQYqPVQ3Ld-JVz-3" value="发货单" style="rounded=0;whiteSpace=wrap;html=1;" vertex="1" parent="1">
          <mxGeometry x="260" y="389" width="120" height="60" as="geometry" />
        </mxCell>
        <mxCell id="Q195cHMQYqPVQ3Ld-JVz-4" value="销售出库单" style="rounded=0;whiteSpace=wrap;html=1;" vertex="1" parent="1">
          <mxGeometry x="440" y="389" width="120" height="60" as="geometry" />
        </mxCell>
        <mxCell id="Q195cHMQYqPVQ3Ld-JVz-5" value="销售发票" style="rounded=0;whiteSpace=wrap;html=1;" vertex="1" parent="1">
          <mxGeometry x="620" y="389" width="120" height="60" as="geometry" />
        </mxCell>
        <mxCell id="Q195cHMQYqPVQ3Ld-JVz-7" value="凭证生成" style="rounded=0;whiteSpace=wrap;html=1;" vertex="1" parent="1">
          <mxGeometry x="620" y="276" width="120" height="60" as="geometry" />
        </mxCell>
        <mxCell id="Q195cHMQYqPVQ3Ld-JVz-9" value="加盟商" style="text;html=1;strokeColor=none;fillColor=none;align=center;verticalAlign=middle;whiteSpace=wrap;rounded=0;dashed=1;fontStyle=1" vertex="1" parent="1">
          <mxGeometry x="40" y="40" width="60" height="30" as="geometry" />
        </mxCell>
        <mxCell id="Q195cHMQYqPVQ3Ld-JVz-12" value="集团" style="text;html=1;strokeColor=none;fillColor=none;align=center;verticalAlign=middle;whiteSpace=wrap;rounded=0;dashed=1;fontStyle=1" vertex="1" parent="1">
          <mxGeometry x="40" y="240" width="60" height="30" as="geometry" />
        </mxCell>
        <mxCell id="Q195cHMQYqPVQ3Ld-JVz-13" value="" style="endArrow=classic;html=1;rounded=0;exitX=0.5;exitY=1;exitDx=0;exitDy=0;" edge="1" parent="1" source="Q195cHMQYqPVQ3Ld-JVz-1" target="Q195cHMQYqPVQ3Ld-JVz-2">
          <mxGeometry width="50" height="50" relative="1" as="geometry">
            <mxPoint x="940" y="380" as="sourcePoint" />
            <mxPoint x="990" y="330" as="targetPoint" />
          </mxGeometry>
        </mxCell>
        <mxCell id="Q195cHMQYqPVQ3Ld-JVz-14" value="" style="endArrow=classic;html=1;rounded=0;exitX=1;exitY=0.5;exitDx=0;exitDy=0;entryX=0;entryY=0.5;entryDx=0;entryDy=0;" edge="1" parent="1" source="Q195cHMQYqPVQ3Ld-JVz-2" target="Q195cHMQYqPVQ3Ld-JVz-3">
          <mxGeometry width="50" height="50" relative="1" as="geometry">
            <mxPoint x="150" y="233" as="sourcePoint" />
            <mxPoint x="150" y="373" as="targetPoint" />
          </mxGeometry>
        </mxCell>
        <mxCell id="Q195cHMQYqPVQ3Ld-JVz-15" value="" style="endArrow=classic;html=1;rounded=0;exitX=1;exitY=0.5;exitDx=0;exitDy=0;entryX=0;entryY=0.5;entryDx=0;entryDy=0;" edge="1" parent="1" source="Q195cHMQYqPVQ3Ld-JVz-3" target="Q195cHMQYqPVQ3Ld-JVz-4">
          <mxGeometry width="50" height="50" relative="1" as="geometry">
            <mxPoint x="210" y="403" as="sourcePoint" />
            <mxPoint x="270" y="403" as="targetPoint" />
          </mxGeometry>
        </mxCell>
        <mxCell id="Q195cHMQYqPVQ3Ld-JVz-16" value="" style="endArrow=classic;html=1;rounded=0;exitX=1;exitY=0.5;exitDx=0;exitDy=0;" edge="1" parent="1" source="Q195cHMQYqPVQ3Ld-JVz-4" target="Q195cHMQYqPVQ3Ld-JVz-5">
          <mxGeometry width="50" height="50" relative="1" as="geometry">
            <mxPoint x="220" y="413" as="sourcePoint" />
            <mxPoint x="280" y="413" as="targetPoint" />
          </mxGeometry>
        </mxCell>
        <mxCell id="Q195cHMQYqPVQ3Ld-JVz-17" value="" style="endArrow=classic;html=1;rounded=0;exitX=0.5;exitY=0;exitDx=0;exitDy=0;" edge="1" parent="1" source="Q195cHMQYqPVQ3Ld-JVz-5" target="Q195cHMQYqPVQ3Ld-JVz-7">
          <mxGeometry width="50" height="50" relative="1" as="geometry">
            <mxPoint x="680" y="361" as="sourcePoint" />
            <mxPoint x="630" y="411" as="targetPoint" />
          </mxGeometry>
        </mxCell>
        <mxCell id="Q195cHMQYqPVQ3Ld-JVz-18" value="订单完成" style="rounded=0;whiteSpace=wrap;html=1;" vertex="1" parent="1">
          <mxGeometry x="620" y="80" width="120" height="60" as="geometry" />
        </mxCell>
        <mxCell id="Q195cHMQYqPVQ3Ld-JVz-19" value="" style="endArrow=classic;html=1;rounded=0;exitX=0.5;exitY=0;exitDx=0;exitDy=0;entryX=0.5;entryY=1;entryDx=0;entryDy=0;" edge="1" parent="1" source="Q195cHMQYqPVQ3Ld-JVz-7" target="Q195cHMQYqPVQ3Ld-JVz-18">
          <mxGeometry width="50" height="50" relative="1" as="geometry">
            <mxPoint x="690" y="399" as="sourcePoint" />
            <mxPoint x="690" y="346" as="targetPoint" />
          </mxGeometry>
        </mxCell>
        <mxCell id="Q195cHMQYqPVQ3Ld-JVz-20" value="" style="rounded=0;whiteSpace=wrap;html=1;dashed=1;dashPattern=1 4;" vertex="1" parent="1">
          <mxGeometry x="80" y="500" width="680" height="140" as="geometry" />
        </mxCell>
        <mxCell id="Q195cHMQYqPVQ3Ld-JVz-21" value="销售成本/收入" style="rounded=0;whiteSpace=wrap;html=1;" vertex="1" parent="1">
          <mxGeometry x="260" y="540" width="120" height="60" as="geometry" />
        </mxCell>
        <mxCell id="Q195cHMQYqPVQ3Ld-JVz-22" value="财务部门" style="text;html=1;strokeColor=none;fillColor=none;align=center;verticalAlign=middle;whiteSpace=wrap;rounded=0;dashed=1;fontStyle=1" vertex="1" parent="1">
          <mxGeometry x="80" y="495" width="60" height="30" as="geometry" />
        </mxCell>
        <mxCell id="Q195cHMQYqPVQ3Ld-JVz-23" value="" style="endArrow=classic;html=1;rounded=0;exitX=0.5;exitY=1;exitDx=0;exitDy=0;entryX=0.5;entryY=0;entryDx=0;entryDy=0;" edge="1" parent="1" source="Q195cHMQYqPVQ3Ld-JVz-3" target="Q195cHMQYqPVQ3Ld-JVz-21">
          <mxGeometry width="50" height="50" relative="1" as="geometry">
            <mxPoint x="980" y="570" as="sourcePoint" />
            <mxPoint x="1030" y="520" as="targetPoint" />
          </mxGeometry>
        </mxCell>
      </root>
    </mxGraphModel>
  </diagram>
</mxfile>
